<svg xmlns="http://www.w3.org/2000/svg" width="173.5" height="159.04" viewBox="0 0 173.5 159.04">
  <g id="image" transform="translate(0 -2)" opacity="0.28">
    <g id="Group_6001" data-name="Group 6001" transform="translate(0 57.671)">
      <path id="Path_3434" data-name="Path 3434" d="M126.166,113.07a14.419,14.419,0,0,1-3.687-.477L10.7,82.657A14.59,14.59,0,0,1,.474,64.946l14.1-52.57a3.614,3.614,0,1,1,6.983,1.865L7.465,66.8A7.336,7.336,0,0,0,12.6,75.681L124.338,105.6a7.2,7.2,0,0,0,8.8-5.089l5.646-20.921a3.616,3.616,0,1,1,6.983,1.88l-5.639,20.892a14.439,14.439,0,0,1-13.959,10.706Z" transform="translate(0 -9.701)"/>
    </g>
    <g id="Group_6002" data-name="Group 6002" transform="translate(28.913 2)">
      <path id="Path_3435" data-name="Path 3435" d="M134.124,117.666H18.458A14.473,14.473,0,0,1,4,103.207V16.458A14.473,14.473,0,0,1,18.458,2H134.124a14.473,14.473,0,0,1,14.458,14.458v86.749A14.473,14.473,0,0,1,134.124,117.666ZM18.458,9.229a7.241,7.241,0,0,0-7.229,7.229v86.749a7.241,7.241,0,0,0,7.229,7.229H134.124a7.241,7.241,0,0,0,7.229-7.229V16.458a7.241,7.241,0,0,0-7.229-7.229Z" transform="translate(-4 -2)"/>
    </g>
    <g id="Group_6003" data-name="Group 6003" transform="translate(50.601 23.687)">
      <path id="Path_3436" data-name="Path 3436" d="M21.458,33.916A14.458,14.458,0,1,1,35.916,19.458,14.473,14.473,0,0,1,21.458,33.916Zm0-21.687a7.229,7.229,0,1,0,7.229,7.229A7.241,7.241,0,0,0,21.458,12.229Z" transform="translate(-7 -5)"/>
    </g>
    <g id="Group_6004" data-name="Group 6004" transform="translate(29.418 42.121)">
      <path id="Path_3437" data-name="Path 3437" d="M7.686,75.359a3.611,3.611,0,0,1-2.559-6.166L39.27,35.049a11.111,11.111,0,0,1,15.333,0L64.767,45.214,92.9,11.454a10.861,10.861,0,0,1,8.256-3.9h.08a10.837,10.837,0,0,1,8.234,3.781L147.28,55.443a3.614,3.614,0,1,1-5.487,4.706L103.985,16.037a3.576,3.576,0,0,0-2.747-1.258,3.837,3.837,0,0,0-2.776,1.3l-30.673,36.8a3.6,3.6,0,0,1-2.617,1.294,3.479,3.479,0,0,1-2.718-1.055L49.492,40.16a3.713,3.713,0,0,0-5.111,0L10.238,74.3a3.6,3.6,0,0,1-2.552,1.055Z" transform="translate(-4.07 -7.55)"/>
    </g>
  </g>
</svg>
